<svg width="400" height="200" viewBox="0 0 400 200" xmlns="http://www.w3.org/2000/svg">
    <rect width="400" height="200" fill="#f8f9fa"/>
    <rect x="80" y="40" width="240" height="120" rx="10" fill="#6f42c1" opacity="0.1"/>
    <!-- Enterprise Building -->
    <path d="M140 140 v-80 h60 v80 h40 v-60 h40 v60 h-140" fill="#6f42c1" opacity="0.2"/>
    <!-- Windows -->
    <rect x="150" y="70" width="10" height="10" fill="#6f42c1" opacity="0.3"/>
    <rect x="170" y="70" width="10" height="10" fill="#6f42c1" opacity="0.3"/>
    <rect x="150" y="90" width="10" height="10" fill="#6f42c1" opacity="0.3"/>
    <rect x="170" y="90" width="10" height="10" fill="#6f42c1" opacity="0.3"/>
    <rect x="150" y="110" width="10" height="10" fill="#6f42c1" opacity="0.3"/>
    <rect x="170" y="110" width="10" height="10" fill="#6f42c1" opacity="0.3"/>
    <rect x="240" y="90" width="10" height="10" fill="#6f42c1" opacity="0.3"/>
    <rect x="260" y="90" width="10" height="10" fill="#6f42c1" opacity="0.3"/>
    <rect x="240" y="110" width="10" height="10" fill="#6f42c1" opacity="0.3"/>
    <rect x="260" y="110" width="10" height="10" fill="#6f42c1" opacity="0.3"/>
    <text x="200" y="180" fill="#6f42c1" font-family="Arial" font-size="14" text-anchor="middle">企業方案</text>
</svg> 